<?xml version="1.0" encoding="utf-8"?>
<!-- Generator: Adobe Illustrator 28.0.0, SVG Export Plug-In . SVG Version: 6.00 Build 0)  -->
<svg version="1.1" id="Group_93" xmlns="http://www.w3.org/2000/svg" xmlns:xlink="http://www.w3.org/1999/xlink" x="0px" y="0px"
	 viewBox="0 0 559.8 137.1" style="enable-background:new 0 0 559.8 137.1;" xml:space="preserve">
<style type="text/css">
	.st0{clip-path:url(#SVGID_00000062194205143329583410000008473129747643248824_);fill:#0F0F0F;}
</style>
<g>
	<defs>
		<rect id="SVGID_1_" x="0" y="-12.2" width="559.8" height="137.1"/>
	</defs>
	<clipPath id="SVGID_00000126293027738279436750000002478102966221845685_">
		<use xlink:href="#SVGID_1_"  style="overflow:visible;"/>
	</clipPath>
	<path id="Path_158" style="clip-path:url(#SVGID_00000126293027738279436750000002478102966221845685_);fill:#0F0F0F;" d="
		M91.8,92.4H66.7v29.6h-6.6V46.3h31.8c3.3,0,6.6,0.5,9.8,1.6c2.8,1,5.5,2.6,7.7,4.7c2.2,2.1,3.9,4.5,5,7.3c1.2,3,1.9,6.2,1.8,9.5
		c0,2.7-0.4,5.4-1.3,8c-0.8,2.4-2,4.6-3.5,6.5c-1.5,1.9-3.4,3.6-5.5,4.8c-2.2,1.3-4.6,2.3-7.1,2.9l19,30.4H110L91.8,92.4z
		 M91.8,86.6c2.4,0,4.8-0.4,7-1.3c2.1-0.8,4-2,5.6-3.5c1.6-1.5,2.9-3.4,3.7-5.4c1.8-4.5,1.8-9.6,0-14.1c-0.9-2.1-2.1-3.9-3.7-5.5
		c-1.6-1.6-3.5-2.8-5.7-3.6c-2.3-0.9-4.7-1.3-7.1-1.3h-25v34.5H91.8z"/>
	<path id="Path_159" style="clip-path:url(#SVGID_00000126293027738279436750000002478102966221845685_);fill:#0F0F0F;" d="
		M120.4,123.6h-11.2L90.9,93.9H68.2v29.6h-9.6V44.8h33.3c3.5,0,7,0.6,10.3,1.7c3,1.1,5.8,2.8,8.2,5c2.3,2.2,4.1,4.9,5.4,7.8
		c1.3,3.2,2,6.6,1.9,10.1c0,2.9-0.4,5.8-1.3,8.5c-0.8,2.5-2.1,4.9-3.8,7c-1.6,2.1-3.6,3.8-5.9,5.2c-1.7,1.1-3.6,1.9-5.5,2.5
		L120.4,123.6z M110.8,120.6h4.1L96.3,90.7l2.1-0.5c2.3-0.5,4.6-1.4,6.6-2.7c1.9-1.2,3.7-2.7,5.1-4.5c1.4-1.8,2.6-3.9,3.3-6.1
		c0.8-2.4,1.2-5,1.2-7.5c0-3.1-0.5-6.1-1.7-8.9c-1.1-2.6-2.7-4.9-4.7-6.8c-2.1-1.9-4.5-3.4-7.1-4.4c-3-1.1-6.1-1.6-9.2-1.5H61.6
		v72.8h3.6V90.9h27.5L110.8,120.6z M91.8,88.1H65.2V50.6h26.5c2.6,0,5.2,0.4,7.7,1.4c2.3,0.9,4.4,2.2,6.2,3.9c1.7,1.7,3.1,3.8,4.1,6
		c2,4.9,2,10.3,0,15.2c-0.9,2.2-2.3,4.3-4.1,5.9c-1.8,1.6-3.8,2.9-6.1,3.8C97,87.7,94.4,88.1,91.8,88.1 M68.2,85.1h23.7
		c2.2,0,4.4-0.4,6.5-1.2c1.9-0.7,3.6-1.8,5.1-3.2c1.4-1.4,2.6-3,3.4-4.9c1.6-4.1,1.6-8.8,0-12.9c-0.8-1.9-1.9-3.6-3.4-5
		c-1.5-1.4-3.2-2.5-5.1-3.2c-2.1-0.8-4.3-1.2-6.6-1.2H68.2L68.2,85.1z"/>
	<path id="Path_160" style="clip-path:url(#SVGID_00000126293027738279436750000002478102966221845685_);fill:#0F0F0F;" d="
		M185.8,102.9h-41.1l-8.2,19.1h-7L162,46.3h6.5l32.5,75.8h-7L185.8,102.9z M147.1,97.2h36.2l-17.8-41.6l-0.3-0.9l-0.2,0.9
		L147.1,97.2z"/>
	<path id="Path_161" style="clip-path:url(#SVGID_00000126293027738279436750000002478102966221845685_);fill:#0F0F0F;" d="
		M203.2,123.6H193l-8.2-19.1h-39.1l-8.2,19.1h-10.2L161,44.8h8.4L203.2,123.6z M195,120.6h3.7l-31.2-72.8H163l-31.2,72.8h3.7
		l8.2-19.1h43.1L195,120.6z M185.6,98.7h-40.7l18.7-43.6l1.5-6.3l1.9,6.3L185.6,98.7z M149.4,95.7H181l-15.8-36.9L149.4,95.7z"/>
	<path id="Path_162" style="clip-path:url(#SVGID_00000126293027738279436750000002478102966221845685_);fill:#0F0F0F;" d="
		M219.3,94.4v27.6h-6.6V46.3h30.4c3.3,0,6.6,0.6,9.8,1.8c2.9,1.1,5.5,2.9,7.7,5c2.2,2.2,3.9,4.8,5,7.6c1.2,3.1,1.8,6.3,1.8,9.6
		c0,3.3-0.6,6.6-1.8,9.6c-2.3,5.8-6.8,10.3-12.6,12.6c-3.1,1.2-6.4,1.8-9.7,1.8H219.3z M243.1,88.6c2.4,0,4.8-0.5,7-1.4
		c2.1-0.9,4-2.2,5.6-3.8c1.6-1.7,2.9-3.6,3.7-5.8c1.8-4.6,1.8-9.8,0-14.4c-0.9-2.2-2.1-4.2-3.7-5.8c-1.6-1.7-3.5-3-5.7-3.9
		c-2.3-1-4.7-1.4-7.1-1.4h-23.6v36.5H243.1z"/>
	<path id="Path_163" style="clip-path:url(#SVGID_00000126293027738279436750000002478102966221845685_);fill:#0F0F0F;" d="
		M220.8,123.6h-9.6V44.8h31.9c3.5,0,7,0.6,10.3,1.9c3.1,1.2,5.8,3,8.2,5.4c2.3,2.3,4.1,5.1,5.3,8.1c1.3,3.2,2,6.7,1.9,10.2
		c0,3.5-0.6,7-1.9,10.2c-2.4,6.1-7.3,11-13.4,13.4c-3.3,1.3-6.7,1.9-10.2,1.9h-22.5V123.6z M214.2,120.6h3.6V92.9h25.5
		c3.1,0,6.2-0.5,9.1-1.7c5.4-2.1,9.7-6.4,11.8-11.8c1.1-2.9,1.7-6,1.7-9.1c0-3.1-0.5-6.2-1.7-9.1c-1.1-2.7-2.7-5.1-4.7-7.1
		c-2-2-4.5-3.6-7.2-4.7c-2.9-1.2-6-1.7-9.2-1.7h-28.9V120.6z M243.1,90.1h-25.3V50.6h25.1c2.7,0,5.3,0.5,7.7,1.5
		c2.3,1,4.4,2.4,6.1,4.2c1.7,1.8,3.1,4,4,6.3c2,5,2,10.5,0,15.5c-0.9,2.3-2.3,4.4-4,6.2c-1.7,1.8-3.8,3.2-6.1,4.2
		C248.3,89.6,245.7,90.2,243.1,90.1 M220.8,87.1h22.3c2.2,0,4.4-0.4,6.4-1.3c1.9-0.8,3.7-2,5.1-3.5c1.5-1.5,2.6-3.3,3.4-5.3
		c1.6-4.3,1.6-9,0-13.3c-0.8-2-2-3.8-3.4-5.4c-1.5-1.5-3.2-2.7-5.2-3.6c-2.1-0.9-4.3-1.3-6.5-1.3h-22.1L220.8,87.1z"/>
	<path id="Path_164" style="clip-path:url(#SVGID_00000126293027738279436750000002478102966221845685_);fill:#0F0F0F;" d="
		M361.4,84.1c0-3.6,0.5-7.1,1.4-10.6c0.9-3.3,2.3-6.5,4-9.4c1.7-2.9,3.8-5.6,6.3-8c2.4-2.4,5.2-4.4,8.2-6.1c3-1.7,6.3-3,9.6-3.9
		c7-1.9,14.4-1.9,21.4,0c3.4,0.9,6.6,2.2,9.6,3.9c9,5.1,15.7,13.6,18.5,23.5c1,3.4,1.5,7,1.5,10.6c0,3.6-0.5,7.1-1.5,10.5
		c-2.8,10-9.5,18.4-18.5,23.5c-3,1.7-6.3,3-9.6,3.9c-7,1.9-14.4,1.9-21.4,0c-3.4-0.9-6.6-2.2-9.6-3.9c-3-1.7-5.7-3.7-8.2-6.1
		c-2.4-2.4-4.5-5-6.3-8c-1.7-3-3.1-6.1-4-9.4C361.9,91.2,361.4,87.7,361.4,84.1 M367.9,84.1c0,4.5,0.9,9,2.6,13.1
		c7.5,16.9,27.1,24.8,44.2,17.7c4-1.7,7.7-4.1,10.8-7.1c3.1-3,5.5-6.7,7.2-10.6c3.5-8.4,3.5-17.9,0-26.4
		c-7.3-17.2-27.2-25.2-44.3-17.8c-8,3.4-14.4,9.8-17.8,17.8C368.8,75.1,367.9,79.6,367.9,84.1"/>
	<path id="Path_165" style="clip-path:url(#SVGID_00000126293027738279436750000002478102966221845685_);fill:#0F0F0F;" d="
		M401.6,124.9c-3.7,0-7.5-0.5-11.1-1.4c-3.5-0.9-6.8-2.3-10-4.1c-3.1-1.7-5.9-3.9-8.5-6.4c-2.5-2.5-4.7-5.2-6.5-8.3
		c-1.8-3.1-3.2-6.3-4.2-9.8c-1-3.6-1.5-7.2-1.5-10.9c0-3.7,0.5-7.4,1.5-11c1-3.4,2.4-6.7,4.2-9.8c1.8-3,4-5.8,6.5-8.3
		c2.5-2.5,5.4-4.6,8.5-6.4c13.1-7.4,29-7.4,42.1,0c9.4,5.3,16.3,14.1,19.2,24.4c1,3.6,1.5,7.3,1.5,11c0,3.7-0.5,7.4-1.5,10.9
		c-3,10.3-9.9,19.1-19.2,24.4c-3.1,1.8-6.5,3.1-10,4.1C409.1,124.5,405.4,125,401.6,124.9 M401.6,46.2c-3.5,0-6.9,0.4-10.3,1.3
		c-3.2,0.9-6.3,2.1-9.3,3.8c-2.9,1.6-5.5,3.6-7.9,5.9c-2.3,2.3-4.4,4.9-6,7.7c-1.7,2.9-3,5.9-3.9,9.1c-0.9,3.3-1.4,6.7-1.4,10.2
		c0,3.4,0.5,6.8,1.4,10.1c0.9,3.2,2.2,6.2,3.9,9.1c1.7,2.8,3.7,5.4,6,7.7c2.4,2.3,5,4.3,7.9,5.9c12.1,6.9,27,6.9,39.1,0
		c8.7-4.9,15.1-13,17.8-22.6c0.9-3.3,1.4-6.7,1.4-10.1c0-3.4-0.5-6.9-1.4-10.2c-2.7-9.6-9.1-17.7-17.8-22.6c-2.9-1.6-6-2.9-9.3-3.8
		C408.6,46.6,405.1,46.2,401.6,46.2 M401.6,119.1c-14.1,0.1-26.9-8.3-32.4-21.2c-3.7-8.8-3.7-18.7,0-27.5
		c7.7-17.9,28.4-26.2,46.4-18.6c8.3,3.6,15,10.2,18.6,18.6c5.7,13.2,2.7,28.6-7.6,38.7c-3.2,3.2-7,5.7-11.2,7.4
		C411,118.2,406.3,119.1,401.6,119.1 M401.6,52c-12.9-0.1-24.6,7.6-29.7,19.5c-3.4,8.1-3.4,17.1,0,25.2c7.1,16.2,25.9,23.7,42.2,17
		c3.8-1.6,7.3-3.9,10.3-6.8c2.9-2.9,5.3-6.4,6.9-10.2c3.4-8.1,3.4-17.1,0-25.2C426.3,59.6,414.6,52,401.6,52"/>
	<path id="Path_166" style="clip-path:url(#SVGID_00000126293027738279436750000002478102966221845685_);fill:#0F0F0F;" d="
		M458.7,46.3h6.6v69.9h38.9v5.8h-45.5V46.3z"/>
	<path id="Path_167" style="clip-path:url(#SVGID_00000126293027738279436750000002478102966221845685_);fill:#0F0F0F;" d="
		M505.6,123.6h-48.5V44.8h9.6v69.9h38.9V123.6z M460.2,120.6h42.5v-2.8h-38.9V47.8h-3.6V120.6z"/>
	<path id="Path_168" style="clip-path:url(#SVGID_00000126293027738279436750000002478102966221845685_);fill:#0F0F0F;" d="
		M289.7,51.2v-61.9h-6.6v132.7h6.6V61.4l0,0V51.2z"/>
	<path id="Path_169" style="clip-path:url(#SVGID_00000126293027738279436750000002478102966221845685_);fill:#0F0F0F;" d="
		M291.2,123.6h-9.6V-12.2h9.6V123.6z M284.6,120.6h3.6V-9.2h-3.6V120.6z"/>
	<path id="Path_170" style="clip-path:url(#SVGID_00000126293027738279436750000002478102966221845685_);fill:#0F0F0F;" d="
		M338-10.7v61.9h-0.1v10.2h0.1v60.6h6.6V-10.7H338z"/>
	<path id="Path_171" style="clip-path:url(#SVGID_00000126293027738279436750000002478102966221845685_);fill:#0F0F0F;" d="
		M346.1,123.6h-9.6V62.9l-0.1-1.5V49.7h0.1v-61.9h9.6V123.6z M339.5,120.6h3.6V-9.2h-3.6v61.9h-0.1v7.2l0.1,1.5V120.6z"/>
	
		<rect id="Rectangle_194" x="0" y="24.7" style="clip-path:url(#SVGID_00000126293027738279436750000002478102966221845685_);fill:#0F0F0F;" width="559.8" height="9.6"/>
	
		<rect id="Rectangle_195" x="30.3" y="33.3" style="clip-path:url(#SVGID_00000126293027738279436750000002478102966221845685_);fill:#0F0F0F;" width="6.6" height="88.7"/>
	<path id="Path_172" style="clip-path:url(#SVGID_00000126293027738279436750000002478102966221845685_);fill:#0F0F0F;" d="
		M38.3,123.6h-9.6V31.8h9.6V123.6z M31.8,120.6h3.6V34.8h-3.6L31.8,120.6z"/>
	
		<rect id="Rectangle_196" x="523" y="31.4" style="clip-path:url(#SVGID_00000126293027738279436750000002478102966221845685_);fill:#0F0F0F;" width="6.6" height="90.6"/>
	<path id="Path_173" style="clip-path:url(#SVGID_00000126293027738279436750000002478102966221845685_);fill:#0F0F0F;" d="
		M531.1,123.6h-9.6V29.9h9.6V123.6z M524.5,120.6h3.6V32.9h-3.6V120.6z"/>
</g>
</svg>
