<svg xmlns="http://www.w3.org/2000/svg" xmlns:xlink="http://www.w3.org/1999/xlink" width="536" height="131.271" viewBox="0 0 536 131.271">
  <defs>
    <clipPath id="clip-path">
      <rect id="Rectangle_207" data-name="Rectangle 207" width="536" height="131.271"/>
    </clipPath>
  </defs>
  <g id="logo" transform="translate(0 12.2)">
    <g id="Group_96" data-name="Group 96" transform="translate(0 -12.2)" clip-path="url(#clip-path)">
      <path id="Path_158" d="M90.452,90.44H66.419v28.342H60.1V46.3H90.548a28.76,28.76,0,0,1,9.383,1.532,20.978,20.978,0,0,1,7.373,4.5,19.409,19.409,0,0,1,4.787,6.99,22.621,22.621,0,0,1,1.723,9.1,23.344,23.344,0,0,1-1.245,7.66,20.534,20.534,0,0,1-3.351,6.224,18.614,18.614,0,0,1-5.266,4.6,24.79,24.79,0,0,1-6.8,2.777l18.192,29.108h-7.468Zm0-5.553a17.724,17.724,0,0,0,6.7-1.245,16.365,16.365,0,0,0,5.362-3.351,14.678,14.678,0,0,0,3.543-5.17,18.272,18.272,0,0,0,0-13.5,16.463,16.463,0,0,0-3.543-5.266,14.73,14.73,0,0,0-5.458-3.447,18.57,18.57,0,0,0-6.8-1.245H66.324V84.7H90.452Z" transform="translate(-2.555 9.713)" fill="#0f0f0f"/>
    </g>
    <g id="Group_97" data-name="Group 97" transform="translate(0 -12.2)" clip-path="url(#clip-path)">
      <path id="Path_159" d="M117.773,120.25H107.049L89.527,91.813H67.792v28.342H58.6V44.8H90.484a31.315,31.315,0,0,1,9.862,1.628,22.041,22.041,0,0,1,13.022,12.256,23.808,23.808,0,0,1,1.819,9.671,25.818,25.818,0,0,1-1.245,8.139,20.8,20.8,0,0,1-3.638,6.7,20.157,20.157,0,0,1-5.649,4.979,21.752,21.752,0,0,1-5.266,2.394Zm-9.192-2.872h3.926L94.7,88.749l2.011-.479A19.207,19.207,0,0,0,111.07,75.535a23,23,0,0,0,1.149-7.181,21.439,21.439,0,0,0-1.628-8.522,19.361,19.361,0,0,0-4.5-6.511,21.837,21.837,0,0,0-6.8-4.213,23.315,23.315,0,0,0-8.809-1.436H61.472v69.7h3.447V88.94H91.25ZM90.388,86.259H64.919V50.353H90.293a19.693,19.693,0,0,1,7.373,1.34,18.32,18.32,0,0,1,5.936,3.734,19.752,19.752,0,0,1,3.926,5.745,19.153,19.153,0,0,1,0,14.554,15.428,15.428,0,0,1-3.926,5.649,19.355,19.355,0,0,1-5.841,3.638,21.689,21.689,0,0,1-7.373,1.245m-22.6-2.872H90.484a17.469,17.469,0,0,0,6.224-1.149,14.507,14.507,0,0,0,4.883-3.064,14.731,14.731,0,0,0,3.255-4.692,17.172,17.172,0,0,0,0-12.352,13.722,13.722,0,0,0-3.255-4.787,14.507,14.507,0,0,0-4.883-3.064,17.6,17.6,0,0,0-6.319-1.149h-22.6Z" transform="translate(-2.491 9.777)" fill="#0f0f0f"/>
    </g>
    <g id="Group_98" data-name="Group 98" transform="translate(0 -12.2)" clip-path="url(#clip-path)">
      <path id="Path_160" d="M183.406,100.494H144.054L136.2,118.782h-6.7L160.618,46.3h6.224l31.118,72.577h-6.7Zm-37.055-5.458h34.661L163.969,55.2l-.287-.862-.191.862Z" transform="translate(-5.506 9.713)" fill="#0f0f0f"/>
    </g>
    <g id="Group_99" data-name="Group 99" transform="translate(0 -12.2)" clip-path="url(#clip-path)">
      <path id="Path_161" d="M199.973,120.25h-9.766l-7.851-18.288H144.918l-7.851,18.288H127.3L159.567,44.8h8.043Zm-7.851-2.872h3.543l-29.874-69.7h-4.309l-29.874,69.7h3.543L143,99.089H184.27Zm-9-20.969h-38.97l17.9-41.746,1.436-6.032,1.819,6.032ZM148.46,93.536h30.257L163.589,58.2Z" transform="translate(-5.412 9.777)" fill="#0f0f0f"/>
    </g>
    <g id="Group_100" data-name="Group 100" transform="translate(0 -12.2)" clip-path="url(#clip-path)">
      <path id="Path_162" d="M219.019,92.355v26.427H212.7V46.3h29.108a26.655,26.655,0,0,1,9.383,1.723,22.271,22.271,0,0,1,7.373,4.787,21.375,21.375,0,0,1,4.787,7.277,25.251,25.251,0,0,1,1.723,9.192,24.881,24.881,0,0,1-1.723,9.192,21.362,21.362,0,0,1-12.064,12.064A25.757,25.757,0,0,1,242,92.259h-22.98ZM241.808,86.8a17.811,17.811,0,0,0,6.7-1.34,17.152,17.152,0,0,0,5.362-3.638,16.183,16.183,0,0,0,3.543-5.553,19.03,19.03,0,0,0,0-13.788,16.709,16.709,0,0,0-3.543-5.553,15.417,15.417,0,0,0-5.458-3.734,16.885,16.885,0,0,0-6.8-1.34h-22.6V86.8h22.788Z" transform="translate(-9.043 9.713)" fill="#0f0f0f"/>
    </g>
    <g id="Group_101" data-name="Group 101" transform="translate(0 -12.2)" clip-path="url(#clip-path)">
      <path id="Path_163" d="M220.392,120.25H211.2V44.8h30.544a26.867,26.867,0,0,1,9.862,1.819,22.428,22.428,0,0,1,7.851,5.17,23.173,23.173,0,0,1,5.075,7.756,24.262,24.262,0,0,1,1.819,9.766,26.015,26.015,0,0,1-1.819,9.766,22.844,22.844,0,0,1-12.83,12.83,26.371,26.371,0,0,1-9.766,1.819H220.392Zm-6.319-2.872h3.447V90.855h24.416a22.706,22.706,0,0,0,8.713-1.628,19.883,19.883,0,0,0,11.3-11.3,24.666,24.666,0,0,0,1.628-8.713,22.706,22.706,0,0,0-1.628-8.713,20.557,20.557,0,0,0-4.5-6.8,20.969,20.969,0,0,0-6.894-4.5,22.85,22.85,0,0,0-8.809-1.628H214.072v69.8Zm27.671-29.2H217.519V50.353h24.033a19.09,19.09,0,0,1,7.373,1.436,17.7,17.7,0,0,1,5.841,4.021,19.011,19.011,0,0,1,3.83,6.032,19.888,19.888,0,0,1,0,14.841,18.589,18.589,0,0,1-3.83,5.936,17.7,17.7,0,0,1-5.841,4.021,15.405,15.405,0,0,1-7.181,1.532M220.392,85.3h21.352a14.933,14.933,0,0,0,6.128-1.245,14.352,14.352,0,0,0,4.883-3.351,14.883,14.883,0,0,0,3.255-5.075,17.078,17.078,0,0,0-3.255-17.9,16.55,16.55,0,0,0-4.979-3.447,15.706,15.706,0,0,0-6.224-1.245h-21.16Z" transform="translate(-8.979 9.777)" fill="#0f0f0f"/>
    </g>
    <g id="Group_102" data-name="Group 102" transform="translate(0 -12.2)" clip-path="url(#clip-path)">
      <path id="Path_164" d="M361.4,82.424a40.464,40.464,0,0,1,1.34-10.149,37.469,37.469,0,0,1,3.83-9,35.454,35.454,0,0,1,6.032-7.66,36.408,36.408,0,0,1,7.851-5.841,40.276,40.276,0,0,1,9.192-3.734,39.146,39.146,0,0,1,20.49,0,38.589,38.589,0,0,1,9.192,3.734,37.819,37.819,0,0,1,17.713,22.5,36.11,36.11,0,0,1,1.436,10.149,35.446,35.446,0,0,1-1.436,10.054,37.545,37.545,0,0,1-17.713,22.5,40.276,40.276,0,0,1-9.192,3.734,39.146,39.146,0,0,1-20.49,0,38.943,38.943,0,0,1-17.043-9.575,36.994,36.994,0,0,1-9.862-16.66,39.153,39.153,0,0,1-1.34-10.054m6.224,0a32,32,0,0,0,44.81,29.491,34.012,34.012,0,0,0,10.341-6.8,31.8,31.8,0,0,0,6.894-10.149,33.034,33.034,0,0,0,0-25.278,32.324,32.324,0,0,0-59.46,0,32.909,32.909,0,0,0-2.585,12.735" transform="translate(-15.365 9.782)" fill="#0f0f0f"/>
    </g>
    <g id="Group_103" data-name="Group 103" transform="translate(0 -12.2)" clip-path="url(#clip-path)">
      <path id="Path_165" d="M399.823,121.416a44.284,44.284,0,0,1-10.628-1.34,39.557,39.557,0,0,1-9.575-3.926,38.958,38.958,0,0,1-14.362-14.075,40.8,40.8,0,0,1-4.021-9.383A38.652,38.652,0,0,1,359.8,82.255a39.347,39.347,0,0,1,1.436-10.532,42.662,42.662,0,0,1,4.021-9.383,41.428,41.428,0,0,1,6.224-7.947,39.434,39.434,0,0,1,8.139-6.128,40.879,40.879,0,0,1,40.31,0,38.758,38.758,0,0,1,19.82,33.895A38.139,38.139,0,0,1,438.314,92.6a39.7,39.7,0,0,1-18.384,23.363,41.956,41.956,0,0,1-9.575,3.926,29.9,29.9,0,0,1-10.532,1.532m0-75.354a38.154,38.154,0,0,0-9.862,1.245,39.609,39.609,0,0,0-8.9,3.638,36.232,36.232,0,0,0-7.564,5.649,35.54,35.54,0,0,0-5.745,7.373,36.044,36.044,0,0,0,0,36.863,39.1,39.1,0,0,0,5.745,7.373,36.232,36.232,0,0,0,7.564,5.649,37.835,37.835,0,0,0,37.438,0,36.024,36.024,0,0,0,17.043-21.639,36.821,36.821,0,0,0,1.34-9.671,37.535,37.535,0,0,0-1.34-9.766,36.025,36.025,0,0,0-17.043-21.639,40.443,40.443,0,0,0-8.9-3.638,30.17,30.17,0,0,0-9.766-1.436m0,69.8a33.5,33.5,0,0,1-31.022-20.3,33.789,33.789,0,0,1,62.237-26.331,33.387,33.387,0,0,1-7.277,37.055,32.226,32.226,0,0,1-10.724,7.085,36.771,36.771,0,0,1-13.213,2.489m0-64.247a30.736,30.736,0,0,0-28.437,42.8,31.2,31.2,0,0,0,40.406,16.277,32.141,32.141,0,0,0,9.862-6.511,30.751,30.751,0,0,0-21.831-52.566" transform="translate(-15.297 9.855)" fill="#0f0f0f"/>
    </g>
    <g id="Group_104" data-name="Group 104" transform="translate(0 -12.2)" clip-path="url(#clip-path)">
      <path id="Path_166" d="M458.7,46.3h6.319v66.928h37.246v5.553H458.7Z" transform="translate(-19.502 9.713)" fill="#0f0f0f"/>
    </g>
    <g id="Group_105" data-name="Group 105" transform="translate(0 -12.2)" clip-path="url(#clip-path)">
      <path id="Path_167" d="M503.538,120.25H457.1V44.8h9.192v66.928h37.246Zm-43.47-2.872h40.693V114.7H463.515V47.672h-3.447Z" transform="translate(-19.434 9.777)" fill="#0f0f0f"/>
    </g>
    <g id="Group_106" data-name="Group 106" transform="translate(0 -12.2)" clip-path="url(#clip-path)">
      <path id="Path_168" d="M289.419,48.568V-10.7H283.1V116.358h6.319V58.335h0Z" transform="translate(-12.036 12.136)" fill="#0f0f0f"/>
    </g>
    <g id="Group_107" data-name="Group 107" transform="translate(0 -12.2)" clip-path="url(#clip-path)">
      <path id="Path_169" d="M290.792,117.826H281.6V-12.2h9.192Zm-6.319-2.872h3.447V-9.328h-3.447Z" transform="translate(-11.972 12.2)" fill="#0f0f0f"/>
    </g>
    <g id="Group_108" data-name="Group 108" transform="translate(0 -12.2)" clip-path="url(#clip-path)">
      <path id="Path_170" d="M338-10.7V48.568h-.1v9.766h.1v58.024h6.319V-10.7Z" transform="translate(-14.366 12.136)" fill="#0f0f0f"/>
    </g>
    <g id="Group_109" data-name="Group 109" transform="translate(0 -12.2)" clip-path="url(#clip-path)">
      <path id="Path_171" d="M345.688,117.826H336.5V59.707l-.1-1.436v-11.2h.1V-12.2h9.192Zm-6.319-2.872h3.447V-9.328h-3.447V49.941h-.1v6.894l.1,1.436Z" transform="translate(-14.302 12.2)" fill="#0f0f0f"/>
    </g>
    <g id="Group_110" data-name="Group 110" transform="translate(0 -12.2)" clip-path="url(#clip-path)">
      <rect id="Rectangle_194" width="536" height="9.192" transform="translate(0 35.331)" fill="#0f0f0f"/>
    </g>
    <g id="Group_111" data-name="Group 111" transform="translate(0 -12.2)" clip-path="url(#clip-path)">
      <rect id="Rectangle_195" width="6.319" height="84.929" transform="translate(29.012 43.566)" fill="#0f0f0f"/>
    </g>
    <g id="Group_112" data-name="Group 112" transform="translate(0 -12.2)" clip-path="url(#clip-path)">
      <path id="Path_172" d="M37.892,119.7H28.7V31.8h9.192Zm-6.224-2.872h3.447V34.672H31.668Z" transform="translate(-1.22 10.329)" fill="#0f0f0f"/>
    </g>
    <g id="Group_113" data-name="Group 113" transform="translate(0 -12.2)" clip-path="url(#clip-path)">
      <rect id="Rectangle_196" width="6.319" height="86.748" transform="translate(500.765 41.746)" fill="#0f0f0f"/>
    </g>
    <g id="Group_114" data-name="Group 114" transform="translate(0 -12.2)" clip-path="url(#clip-path)">
      <path id="Path_173" d="M530.692,119.616H521.5V29.9h9.192Zm-6.319-2.872h3.447V32.772h-3.447Z" transform="translate(-22.172 10.41)" fill="#0f0f0f"/>
    </g>
  </g>
</svg>
