<?xml version="1.0" encoding="utf-8"?>
<!-- Generator: Adobe Illustrator 28.0.0, SVG Export Plug-In . SVG Version: 6.00 Build 0)  -->
<svg version="1.1" id="Group_93" xmlns="http://www.w3.org/2000/svg" xmlns:xlink="http://www.w3.org/1999/xlink" x="0px" y="0px"
	 viewBox="0 0 559.8 137.1" style="enable-background:new 0 0 559.8 137.1;" xml:space="preserve">
<style type="text/css">
	.st0{clip-path:url(#SVGID_00000004535122952406707590000005533234562679858099_);fill:#0F0F0F;}
</style>
<g>
	<defs>
		<rect id="SVGID_1_" x="0" width="559.8" height="137.1"/>
	</defs>
	<clipPath id="SVGID_00000053531207531737894630000010435127641408003973_">
		<use xlink:href="#SVGID_1_"  style="overflow:visible;"/>
	</clipPath>
	<path id="Path_158" style="clip-path:url(#SVGID_00000053531207531737894630000010435127641408003973_);fill:#0F0F0F;" d="
		M91.8,104.6H66.7v29.6h-6.6V58.5h31.8c3.3,0,6.6,0.5,9.8,1.6c2.8,1,5.5,2.6,7.7,4.7c2.2,2.1,3.9,4.5,5,7.3c1.2,3,1.9,6.2,1.8,9.5
		c0,2.7-0.4,5.4-1.3,8c-0.8,2.4-2,4.6-3.5,6.5c-1.5,1.9-3.4,3.6-5.5,4.8c-2.2,1.3-4.6,2.3-7.1,2.9l19,30.4H110L91.8,104.6z
		 M91.8,98.8c2.4,0,4.8-0.4,7-1.3c2.1-0.8,4-2,5.6-3.5c1.6-1.5,2.9-3.4,3.7-5.4c1.8-4.5,1.8-9.6,0-14.1c-0.9-2.1-2.1-3.9-3.7-5.5
		c-1.6-1.6-3.5-2.8-5.7-3.6c-2.3-0.9-4.7-1.3-7.1-1.3h-25v34.5H91.8z"/>
	<path id="Path_159" style="clip-path:url(#SVGID_00000053531207531737894630000010435127641408003973_);fill:#0F0F0F;" d="
		M120.4,135.7h-11.2l-18.2-29.6H68.2v29.6h-9.6V57h33.3c3.5,0,7,0.6,10.3,1.7c3,1.1,5.8,2.8,8.2,5c2.3,2.2,4.1,4.9,5.4,7.8
		c1.3,3.2,2,6.6,1.9,10.1c0,2.9-0.4,5.8-1.3,8.5c-0.8,2.5-2.1,4.9-3.8,7c-1.6,2.1-3.6,3.8-5.9,5.2c-1.7,1.1-3.6,1.9-5.5,2.5
		L120.4,135.7z M110.8,132.7h4.1l-18.7-29.9l2.1-0.5c2.3-0.5,4.6-1.4,6.6-2.7c1.9-1.2,3.7-2.7,5.1-4.5c1.4-1.8,2.6-3.9,3.3-6.1
		c0.8-2.4,1.2-5,1.2-7.5c0-3.1-0.5-6.1-1.7-8.9c-1.1-2.6-2.7-4.9-4.7-6.8c-2.1-1.9-4.5-3.4-7.1-4.4c-3-1.1-6.1-1.6-9.2-1.5H61.6
		v72.8h3.6v-29.6h27.5L110.8,132.7z M91.8,100.3H65.2V62.8h26.5c2.6,0,5.2,0.4,7.7,1.4c2.3,0.9,4.4,2.2,6.2,3.9
		c1.7,1.7,3.1,3.8,4.1,6c2,4.9,2,10.3,0,15.2c-0.9,2.2-2.3,4.3-4.1,5.9c-1.8,1.6-3.8,2.9-6.1,3.8C97,99.9,94.4,100.3,91.8,100.3
		 M68.2,97.3h23.7c2.2,0,4.4-0.4,6.5-1.2c1.9-0.7,3.6-1.8,5.1-3.2c1.4-1.4,2.6-3,3.4-4.9c1.6-4.1,1.6-8.8,0-12.9
		c-0.8-1.9-1.9-3.6-3.4-5c-1.5-1.4-3.2-2.5-5.1-3.2c-2.1-0.8-4.3-1.2-6.6-1.2H68.2L68.2,97.3z"/>
	<path id="Path_160" style="clip-path:url(#SVGID_00000053531207531737894630000010435127641408003973_);fill:#0F0F0F;" d="
		M185.8,115.1h-41.1l-8.2,19.1h-7L162,58.5h6.5l32.5,75.8h-7L185.8,115.1z M147.1,109.3h36.2l-17.8-41.6l-0.3-0.9l-0.2,0.9
		L147.1,109.3z"/>
	<path id="Path_161" style="clip-path:url(#SVGID_00000053531207531737894630000010435127641408003973_);fill:#0F0F0F;" d="
		M203.2,135.7H193l-8.2-19.1h-39.1l-8.2,19.1h-10.2L161,57h8.4L203.2,135.7z M195,132.7h3.7L167.5,60H163l-31.2,72.8h3.7l8.2-19.1
		h43.1L195,132.7z M185.6,110.8h-40.7l18.7-43.6l1.5-6.3l1.9,6.3L185.6,110.8z M149.4,107.8H181l-15.8-36.9L149.4,107.8z"/>
	<path id="Path_162" style="clip-path:url(#SVGID_00000053531207531737894630000010435127641408003973_);fill:#0F0F0F;" d="
		M219.3,106.6v27.6h-6.6V58.5h30.4c3.3,0,6.6,0.6,9.8,1.8c2.9,1.1,5.5,2.9,7.7,5c2.2,2.2,3.9,4.8,5,7.6c1.2,3.1,1.8,6.3,1.8,9.6
		c0,3.3-0.6,6.6-1.8,9.6c-2.3,5.8-6.8,10.3-12.6,12.6c-3.1,1.2-6.4,1.8-9.7,1.8H219.3z M243.1,100.8c2.4,0,4.8-0.5,7-1.4
		c2.1-0.9,4-2.2,5.6-3.8c1.6-1.7,2.9-3.6,3.7-5.8c1.8-4.6,1.8-9.8,0-14.4c-0.9-2.2-2.1-4.2-3.7-5.8c-1.6-1.7-3.5-3-5.7-3.9
		c-2.3-1-4.7-1.4-7.1-1.4h-23.6v36.5H243.1z"/>
	<path id="Path_163" style="clip-path:url(#SVGID_00000053531207531737894630000010435127641408003973_);fill:#0F0F0F;" d="
		M220.8,135.7h-9.6V57h31.9c3.5,0,7,0.6,10.3,1.9c3.1,1.2,5.8,3,8.2,5.4c2.3,2.3,4.1,5.1,5.3,8.1c1.3,3.2,2,6.7,1.9,10.2
		c0,3.5-0.6,7-1.9,10.2c-2.4,6.1-7.3,11-13.4,13.4c-3.3,1.3-6.7,1.9-10.2,1.9h-22.5V135.7z M214.2,132.7h3.6v-27.6h25.5
		c3.1,0,6.2-0.5,9.1-1.7c5.4-2.1,9.7-6.4,11.8-11.8c1.1-2.9,1.7-6,1.7-9.1c0-3.1-0.5-6.2-1.7-9.1c-1.1-2.7-2.7-5.1-4.7-7.1
		c-2-2-4.5-3.6-7.2-4.7c-2.9-1.2-6-1.7-9.2-1.7h-28.9V132.7z M243.1,102.3h-25.3V62.8h25.1c2.7,0,5.3,0.5,7.7,1.5
		c2.3,1,4.4,2.4,6.1,4.2c1.7,1.8,3.1,4,4,6.3c2,5,2,10.5,0,15.5c-0.9,2.3-2.3,4.4-4,6.2c-1.7,1.8-3.8,3.2-6.1,4.2
		C248.3,101.8,245.7,102.3,243.1,102.3 M220.8,99.3h22.3c2.2,0,4.4-0.4,6.4-1.3c1.9-0.8,3.7-2,5.1-3.5c1.5-1.5,2.6-3.3,3.4-5.3
		c1.6-4.3,1.6-9,0-13.3c-0.8-2-2-3.8-3.4-5.4c-1.5-1.5-3.2-2.7-5.2-3.6c-2.1-0.9-4.3-1.3-6.5-1.3h-22.1L220.8,99.3z"/>
	<path id="Path_164" style="clip-path:url(#SVGID_00000053531207531737894630000010435127641408003973_);fill:#0F0F0F;" d="
		M361.4,96.3c0-3.6,0.5-7.1,1.4-10.6c0.9-3.3,2.3-6.5,4-9.4c1.7-2.9,3.8-5.6,6.3-8c2.4-2.4,5.2-4.4,8.2-6.1c3-1.7,6.3-3,9.6-3.9
		c7-1.9,14.4-1.9,21.4,0c3.4,0.9,6.6,2.2,9.6,3.9c9,5.1,15.7,13.6,18.5,23.5c1,3.4,1.5,7,1.5,10.6c0,3.6-0.5,7.1-1.5,10.5
		c-2.8,10-9.5,18.4-18.5,23.5c-3,1.7-6.3,3-9.6,3.9c-7,1.9-14.4,1.9-21.4,0c-3.4-0.9-6.6-2.2-9.6-3.9c-3-1.7-5.7-3.7-8.2-6.1
		c-2.4-2.4-4.5-5-6.3-8c-1.7-3-3.1-6.1-4-9.4C361.9,103.4,361.4,99.9,361.4,96.3 M367.9,96.3c0,4.5,0.9,9,2.6,13.1
		c7.5,16.9,27.1,24.8,44.2,17.7c4-1.7,7.7-4.1,10.8-7.1c3.1-3,5.5-6.7,7.2-10.6c3.5-8.4,3.5-17.9,0-26.4
		c-7.3-17.2-27.2-25.2-44.3-17.8c-8,3.4-14.4,9.8-17.8,17.8C368.8,87.3,367.9,91.8,367.9,96.3"/>
	<path id="Path_165" style="clip-path:url(#SVGID_00000053531207531737894630000010435127641408003973_);fill:#0F0F0F;" d="
		M401.6,137.1c-3.7,0-7.5-0.5-11.1-1.4c-3.5-0.9-6.8-2.3-10-4.1c-3.1-1.7-5.9-3.9-8.5-6.4c-2.5-2.5-4.7-5.2-6.5-8.3
		c-1.8-3.1-3.2-6.3-4.2-9.8c-1-3.6-1.5-7.2-1.5-10.9c0-3.7,0.5-7.4,1.5-11c1-3.4,2.4-6.7,4.2-9.8c1.8-3,4-5.8,6.5-8.3
		c2.5-2.5,5.4-4.6,8.5-6.4c13.1-7.4,29-7.4,42.1,0c9.4,5.3,16.3,14.1,19.2,24.4c1,3.6,1.5,7.3,1.5,11c0,3.7-0.5,7.4-1.5,10.9
		c-3,10.3-9.9,19.1-19.2,24.4c-3.1,1.8-6.5,3.1-10,4.1C409.1,136.7,405.4,137.1,401.6,137.1 M401.6,58.4c-3.5,0-6.9,0.4-10.3,1.3
		c-3.2,0.9-6.3,2.1-9.3,3.8c-2.9,1.6-5.5,3.6-7.9,5.9c-2.3,2.3-4.4,4.9-6,7.7c-1.7,2.9-3,5.9-3.9,9.1c-0.9,3.3-1.4,6.7-1.4,10.2
		c0,3.4,0.5,6.8,1.4,10.1c0.9,3.2,2.2,6.2,3.9,9.1c1.7,2.8,3.7,5.4,6,7.7c2.4,2.3,5,4.3,7.9,5.9c12.1,6.9,27,6.9,39.1,0
		c8.7-4.9,15.1-13,17.8-22.6c0.9-3.3,1.4-6.7,1.4-10.1c0-3.4-0.5-6.9-1.4-10.2c-2.7-9.6-9.1-17.7-17.8-22.6c-2.9-1.6-6-2.9-9.3-3.8
		C408.6,58.8,405.1,58.4,401.6,58.4 M401.6,131.3c-14.1,0.1-26.9-8.3-32.4-21.2c-3.7-8.8-3.7-18.7,0-27.5
		c7.7-17.9,28.4-26.2,46.4-18.6c8.3,3.6,15,10.2,18.6,18.6c5.7,13.2,2.7,28.6-7.6,38.7c-3.2,3.2-7,5.7-11.2,7.4
		C411,130.4,406.3,131.3,401.6,131.3 M401.6,64.2c-12.9-0.1-24.6,7.6-29.7,19.5c-3.4,8.1-3.4,17.1,0,25.2
		c7.1,16.2,25.9,23.7,42.2,17c3.8-1.6,7.3-3.9,10.3-6.8c2.9-2.9,5.3-6.4,6.9-10.2c3.4-8.1,3.4-17.1,0-25.2
		C426.3,71.8,414.6,64.1,401.6,64.2"/>
	<path id="Path_166" style="clip-path:url(#SVGID_00000053531207531737894630000010435127641408003973_);fill:#0F0F0F;" d="
		M458.7,58.5h6.6v69.9h38.9v5.8h-45.5V58.5z"/>
	<path id="Path_167" style="clip-path:url(#SVGID_00000053531207531737894630000010435127641408003973_);fill:#0F0F0F;" d="
		M505.6,135.7h-48.5V57h9.6v69.9h38.9V135.7z M460.2,132.7h42.5v-2.8h-38.9V60h-3.6V132.7z"/>
	<path id="Path_168" style="clip-path:url(#SVGID_00000053531207531737894630000010435127641408003973_);fill:#0F0F0F;" d="
		M289.7,63.4V1.5h-6.6v132.7h6.6V73.6l0,0V63.4z"/>
	<path id="Path_169" style="clip-path:url(#SVGID_00000053531207531737894630000010435127641408003973_);fill:#0F0F0F;" d="
		M291.2,135.7h-9.6V0h9.6V135.7z M284.6,132.7h3.6V3h-3.6V132.7z"/>
	<path id="Path_170" style="clip-path:url(#SVGID_00000053531207531737894630000010435127641408003973_);fill:#0F0F0F;" d="M338,1.5
		v61.9h-0.1v10.2h0.1v60.6h6.6V1.5H338z"/>
	<path id="Path_171" style="clip-path:url(#SVGID_00000053531207531737894630000010435127641408003973_);fill:#0F0F0F;" d="
		M346.1,135.7h-9.6V75.1l-0.1-1.5V61.9h0.1V0h9.6V135.7z M339.5,132.7h3.6V3h-3.6v61.9h-0.1v7.2l0.1,1.5V132.7z"/>
	
		<rect id="Rectangle_194" x="0" y="36.9" style="clip-path:url(#SVGID_00000053531207531737894630000010435127641408003973_);fill:#0F0F0F;" width="559.8" height="9.6"/>
	
		<rect id="Rectangle_195" x="30.3" y="45.5" style="clip-path:url(#SVGID_00000053531207531737894630000010435127641408003973_);fill:#0F0F0F;" width="6.6" height="88.7"/>
	<path id="Path_172" style="clip-path:url(#SVGID_00000053531207531737894630000010435127641408003973_);fill:#0F0F0F;" d="
		M38.3,135.7h-9.6V44h9.6V135.7z M31.8,132.7h3.6V47h-3.6L31.8,132.7z"/>
	
		<rect id="Rectangle_196" x="523" y="43.6" style="clip-path:url(#SVGID_00000053531207531737894630000010435127641408003973_);fill:#0F0F0F;" width="6.6" height="90.6"/>
	<path id="Path_173" style="clip-path:url(#SVGID_00000053531207531737894630000010435127641408003973_);fill:#0F0F0F;" d="
		M531.1,135.8h-9.6V42.1h9.6V135.8z M524.5,132.8h3.6V45.1h-3.6V132.8z"/>
</g>
</svg>
