<svg id="Group_93" data-name="Group 93" xmlns="http://www.w3.org/2000/svg" xmlns:xlink="http://www.w3.org/1999/xlink" width="559.813" height="137.14" viewBox="0 0 559.813 137.14">
  <defs>
    <clipPath id="clip-path">
      <rect id="Rectangle_197" data-name="Rectangle 197" width="559.812" height="137.14" fill="#0f0f0f"/>
    </clipPath>
  </defs>
  <g id="Group_92" data-name="Group 92" clip-path="url(#clip-path)">
    <path id="Path_158" data-name="Path 158" d="M91.78,104.607H66.654v29.639H60.08V58.477H91.836a28,28,0,0,1,9.75,1.643,22.108,22.108,0,0,1,7.66,4.68,21.507,21.507,0,0,1,5.014,7.3,24.063,24.063,0,0,1,1.811,9.5,24.684,24.684,0,0,1-1.254,8.023,21.577,21.577,0,0,1-3.537,6.546,21.168,21.168,0,0,1-5.488,4.846,23.289,23.289,0,0,1-7.1,2.871l19,30.362H110Zm.056-5.794a19.237,19.237,0,0,0,7.02-1.254,17.084,17.084,0,0,0,5.6-3.481,15.671,15.671,0,0,0,3.705-5.405,18.987,18.987,0,0,0-.028-14.068A16.854,16.854,0,0,0,104.4,69.09a16.316,16.316,0,0,0-5.656-3.565,19.822,19.822,0,0,0-7.131-1.254H66.654V98.813Z" fill="#0f0f0f"/>
    <path id="Path_159" data-name="Path 159" d="M120.395,135.746H109.16L90.942,106.107H68.154v29.639H58.58V56.977H91.836A29.6,29.6,0,0,1,102.1,58.713a23.708,23.708,0,0,1,8.174,5,23.11,23.11,0,0,1,5.363,7.8,25.652,25.652,0,0,1,1.93,10.085,26.3,26.3,0,0,1-1.334,8.507,23.19,23.19,0,0,1-3.784,7,22.726,22.726,0,0,1-5.874,5.188,24.321,24.321,0,0,1-5.546,2.514Zm-9.557-3h4.141L96.3,102.892l2.055-.47A21.875,21.875,0,0,0,105,99.737a19.749,19.749,0,0,0,5.1-4.5,20.2,20.2,0,0,0,3.291-6.1,23.361,23.361,0,0,0,1.173-7.539,22.689,22.689,0,0,0-1.691-8.912,20.146,20.146,0,0,0-4.666-6.8,20.727,20.727,0,0,0-7.147-4.361,26.649,26.649,0,0,0-9.231-1.55H61.58v72.769h3.574V103.107H92.619Zm-19-32.433H65.154V62.771H91.613a21.411,21.411,0,0,1,7.666,1.353,17.842,17.842,0,0,1,6.168,3.893,18.411,18.411,0,0,1,4.065,6,20.48,20.48,0,0,1,.03,15.238,17.2,17.2,0,0,1-4.059,5.915A18.645,18.645,0,0,1,99.4,98.958a20.822,20.822,0,0,1-7.563,1.355m-23.682-3H91.836a17.838,17.838,0,0,0,6.477-1.152,15.67,15.67,0,0,0,5.113-3.175,14.248,14.248,0,0,0,3.352-4.895,17.5,17.5,0,0,0-.026-12.9,15.444,15.444,0,0,0-3.4-5.03,14.871,14.871,0,0,0-5.141-3.236,18.437,18.437,0,0,0-6.6-1.156H68.154Z" fill="#0f0f0f"/>
    <path id="Path_160" data-name="Path 160" d="M185.8,115.138H144.685l-8.19,19.109h-6.964l32.48-75.77h6.463l32.481,75.77h-6.964Zm-38.665-5.794h36.158L165.521,67.726l-.278-.947-.223.947Z" fill="#0f0f0f"/>
    <path id="Path_161" data-name="Path 161" d="M203.23,135.746H193l-8.19-19.108H145.675l-8.19,19.108H127.256l33.767-78.769h8.44Zm-8.25-3h3.7l-31.2-72.769H163l-31.2,72.769h3.7l8.19-19.108h43.1Zm-9.414-21.9H144.859l18.732-43.59,1.493-6.334,1.852,6.3Zm-36.152-3h31.609l-15.755-36.9Z" fill="#0f0f0f"/>
    <path id="Path_162" data-name="Path 162" d="M219.285,106.613v27.634h-6.574V58.477H243.13a25.688,25.688,0,0,1,9.75,1.811,22.669,22.669,0,0,1,7.66,5.042,23.327,23.327,0,0,1,5.014,7.632,25.1,25.1,0,0,1,1.811,9.639,25.421,25.421,0,0,1-1.783,9.638,22.266,22.266,0,0,1-12.619,12.591,25.62,25.62,0,0,1-9.666,1.783Zm23.845-5.794a17.552,17.552,0,0,0,7.02-1.392,17.125,17.125,0,0,0,5.6-3.845,17.76,17.76,0,0,0,3.705-5.766,19.793,19.793,0,0,0-.028-14.374,18.357,18.357,0,0,0-3.732-5.85,17.115,17.115,0,0,0-5.656-3.9,17.783,17.783,0,0,0-7.131-1.421H219.285v36.548Z" fill="#0f0f0f"/>
    <path id="Path_163" data-name="Path 163" d="M220.785,135.746h-9.574V56.977H243.13A27.283,27.283,0,0,1,253.444,58.9a24.253,24.253,0,0,1,8.162,5.376,24.948,24.948,0,0,1,5.336,8.118A26.7,26.7,0,0,1,268.865,82.6a27.023,27.023,0,0,1-1.893,10.2,23.76,23.76,0,0,1-13.449,13.42,27.239,27.239,0,0,1-10.226,1.891H220.785Zm-6.574-3h3.574V105.113H243.3a24.263,24.263,0,0,0,9.106-1.674,20.759,20.759,0,0,0,11.789-11.764,24.049,24.049,0,0,0,1.673-9.074,23.713,23.713,0,0,0-1.7-9.068,21.943,21.943,0,0,0-4.692-7.147,21.283,21.283,0,0,0-7.16-4.709,24.317,24.317,0,0,0-9.185-1.7H214.211Zm28.919-30.427H217.785V62.771h25.122a19.346,19.346,0,0,1,7.726,1.544,18.694,18.694,0,0,1,6.145,4.24,19.938,19.938,0,0,1,4.038,6.324,21.291,21.291,0,0,1,.029,15.5,19.328,19.328,0,0,1-4.017,6.246,18.675,18.675,0,0,1-6.084,4.18,19.107,19.107,0,0,1-7.614,1.515m-22.345-3H243.13a16.13,16.13,0,0,0,6.426-1.27,15.683,15.683,0,0,0,5.114-3.509,16.363,16.363,0,0,0,3.393-5.285A18.291,18.291,0,0,0,258.035,76a16.934,16.934,0,0,0-3.426-5.378,15.7,15.7,0,0,0-5.166-3.558,16.375,16.375,0,0,0-6.536-1.3H220.785Z" fill="#0f0f0f"/>
    <path id="Path_164" data-name="Path 164" d="M361.409,96.307a38.362,38.362,0,0,1,1.448-10.585,40,40,0,0,1,4.04-9.445,38.552,38.552,0,0,1,6.267-7.966,39.327,39.327,0,0,1,8.162-6.129,41.68,41.68,0,0,1,9.611-3.928,41.8,41.8,0,0,1,21.394,0,41.692,41.692,0,0,1,9.61,3.928,39.242,39.242,0,0,1,18.524,23.54,38.325,38.325,0,0,1,1.45,10.585,37.825,37.825,0,0,1-1.45,10.5,39.437,39.437,0,0,1-18.524,23.511,41.647,41.647,0,0,1-9.61,3.928,41.768,41.768,0,0,1-21.394,0,41.636,41.636,0,0,1-9.611-3.928,39.222,39.222,0,0,1-8.162-6.129,38.526,38.526,0,0,1-6.267-7.966,40.086,40.086,0,0,1-4.04-9.416,37.862,37.862,0,0,1-1.448-10.5m6.519,0a32.79,32.79,0,0,0,2.646,13.148,34.033,34.033,0,0,0,44.18,17.744,34.041,34.041,0,0,0,10.753-7.1,33.19,33.19,0,0,0,7.243-10.641,34.131,34.131,0,0,0,0-26.353,33.795,33.795,0,0,0-62.176,0,32.943,32.943,0,0,0-2.646,13.205" fill="#0f0f0f"/>
    <path id="Path_165" data-name="Path 165" d="M401.634,137.14a42.274,42.274,0,0,1-11.09-1.447,43.241,43.241,0,0,1-9.956-4.069,41.025,41.025,0,0,1-8.473-6.36,40.311,40.311,0,0,1-6.508-8.276,41.717,41.717,0,0,1-4.191-9.766,39.491,39.491,0,0,1-1.507-10.915,40.027,40.027,0,0,1,1.506-11,41.662,41.662,0,0,1,4.193-9.8,40.226,40.226,0,0,1,6.508-8.274,40.926,40.926,0,0,1,8.472-6.361,42.8,42.8,0,0,1,42.092,0,40.738,40.738,0,0,1,19.228,24.433,40.053,40.053,0,0,1,1.507,11,39.523,39.523,0,0,1-1.508,10.915,40.908,40.908,0,0,1-19.227,24.4,43.225,43.225,0,0,1-9.956,4.069,42.263,42.263,0,0,1-11.09,1.447m0-78.778a39.362,39.362,0,0,0-10.3,1.34,40.288,40.288,0,0,0-9.265,3.786,37.929,37.929,0,0,0-7.852,5.9,37.2,37.2,0,0,0-6.024,7.659,38.623,38.623,0,0,0-3.889,9.091,37.011,37.011,0,0,0-1.391,10.174,36.518,36.518,0,0,0,1.39,10.087,38.813,38.813,0,0,0,3.889,9.065,37.232,37.232,0,0,0,6.025,7.658,37.907,37.907,0,0,0,7.852,5.9,39.8,39.8,0,0,0,39.138,0,37.826,37.826,0,0,0,17.822-22.619,36.581,36.581,0,0,0,1.39-10.087,37.073,37.073,0,0,0-1.391-10.174A37.883,37.883,0,0,0,421.2,63.488a40.337,40.337,0,0,0-9.265-3.787,39.393,39.393,0,0,0-10.3-1.339m0,72.927A34.925,34.925,0,0,1,369.2,110.05a35.642,35.642,0,0,1,0-27.543,35.318,35.318,0,0,1,64.93,0,35,35,0,0,1-7.568,38.659,35.7,35.7,0,0,1-11.223,7.415,35.1,35.1,0,0,1-13.7,2.708m0-67.078A31.942,31.942,0,0,0,371.951,83.7a32.643,32.643,0,0,0,0,25.163,32.532,32.532,0,0,0,42.221,16.955,32.671,32.671,0,0,0,10.285-6.79,31.838,31.838,0,0,0,6.916-10.165,32.622,32.622,0,0,0,0-25.164,32.192,32.192,0,0,0-29.739-19.485" fill="#0f0f0f"/>
    <path id="Path_166" data-name="Path 166" d="M458.684,58.477h6.573V128.4h38.889v5.849H458.684Z" fill="#0f0f0f"/>
    <path id="Path_167" data-name="Path 167" d="M505.646,135.746H457.185V56.977h9.572V126.9h38.889Zm-45.461-3h42.461V129.9H463.757V59.977h-3.572Z" fill="#0f0f0f"/>
    <path id="Path_168" data-name="Path 168" d="M289.65,63.384V1.5h-6.574V134.247h6.574V73.634h0V63.384Z" fill="#0f0f0f"/>
    <path id="Path_169" data-name="Path 169" d="M291.15,135.746h-9.574V0h9.574Zm-6.574-3h3.574V3h-3.574Z" fill="#0f0f0f"/>
    <path id="Path_170" data-name="Path 170" d="M337.953,1.5V63.383h-.08v10.25h.08v60.614h6.63V1.5Z" fill="#0f0f0f"/>
    <path id="Path_171" data-name="Path 171" d="M346.084,135.746h-9.631V75.133l-.08-1.5V61.883h.08V0h9.631Zm-6.631-3h3.631V3h-3.631V64.883h-.08v7.25l.08,1.5Z" fill="#0f0f0f"/>
    <rect id="Rectangle_194" data-name="Rectangle 194" width="559.812" height="6.53" transform="translate(0 38.433)" fill="#0f0f0f"/>
    <rect id="Rectangle_195" data-name="Rectangle 195" width="6.574" height="88.747" transform="translate(30.264 45.5)" fill="#0f0f0f"/>
    <path id="Path_172" data-name="Path 172" d="M38.338,135.746H28.764V44h9.574Zm-6.574-3h3.574V47H31.764Z" fill="#0f0f0f"/>
    <rect id="Rectangle_196" data-name="Rectangle 196" width="6.58" height="90.63" transform="translate(522.972 43.62)" fill="#0f0f0f"/>
    <path id="Path_173" data-name="Path 173" d="M531.052,135.75h-9.58V42.12h9.58Zm-6.58-3h3.58V45.12h-3.58Z" fill="#0f0f0f"/>
  </g>
</svg>
